<svg width="300" height="220" xmlns="http://www.w3.org/2000/svg" fill="none">
 <g>
  <title>Layer 1</title>
  <path stroke="null" d="m205.18127,137.71442c18.95195,-1.79078 60.74675,-5.64527 68.18754,1.79078c7.43721,7.29958 -8.32378,38.01294 -15.40923,51.64569c-2.12492,4.13299 2.48026,5.78452 7.26133,2.61793c31.17022,-20.38367 39.31812,-62.94179 32.94337,-69.1385c-6.37834,-6.05745 -61.1021,-11.29332 -94.40082,6.88739c-5.13641,2.89087 -4.24983,6.74814 1.41781,6.1967z" fill="#F90" id="svg_1"/>
  <path stroke="null" d="m145.97811,215.45601c39.76478,0 86.00997,-19.12372 117.8414,-55.14106c5.22354,-5.92895 0.67647,-14.96926 -4.64511,-11.26441c-35.70007,23.12232 -74.49622,34.38972 -109.81001,34.38972c-52.34128,0 -102.94137,-22.0852 -143.96106,-58.54916c-3.58236,-3.26122 -6.29021,2.37098 -3.29216,6.52245c37.92752,52.47033 88.13938,84.04245 143.86694,84.04245z" fill="#F90" id="svg_2"/>
  <path stroke="null" d="m79.43026,77.51425c0,4.19205 0.41125,7.58922 1.13145,10.08154a55.33045,60.71603 0 0 0 3.29833,8.15503c0.51354,0.90713 0.7202,1.81427 0.7202,2.60686c0,1.13392 -0.61791,2.26783 -1.95812,3.39946l-6.4881,4.75786c-0.92687,0.67806 -1.85583,1.01938 -2.67832,1.01938c-1.03125,0 -2.06041,-0.5681 -3.08957,-1.58748a31.9186,35.0254 0 0 1 -3.70957,-5.32368a79.91132,87.68948 0 0 1 -3.19395,-6.68438c-8.03288,10.42286 -18.12826,15.63429 -30.28196,15.63429c-8.65288,0 -15.55223,-2.71911 -20.59992,-8.15503c-5.04769,-5.43821 -7.62372,-12.69069 -7.62372,-21.75057c0,-9.63027 3.08957,-17.44627 9.37309,-23.33576c6.28352,-5.89178 14.62745,-8.83538 25.23845,-8.83538c3.50082,0 7.10601,0.33903 10.91787,0.90484c3.80977,0.5681 7.72393,1.47295 11.84474,2.49232l0,-8.26957c0,-8.6086 -1.64916,-14.61262 -4.84311,-18.12433c-3.29415,-3.5117 -8.85746,-5.20914 -16.78806,-5.20914c-3.60519,0 -7.31268,0.45128 -11.12454,1.47065a81.92998,89.90463 0 0 0 -11.12454,3.85302a29.51792,32.39105 0 0 1 -3.60519,1.47295c-0.7202,0.22449 -1.23583,0.33903 -1.64916,0.33903c-1.44041,0 -2.1627,-1.13162 -2.1627,-3.5117l0,-5.55046c0,-1.81197 0.20875,-3.17267 0.72229,-3.96298c0.51354,-0.79489 1.44041,-1.58748 2.8829,-2.38237c3.60519,-2.03876 7.93268,-3.7362 12.97828,-5.09689c5.04769,-1.47065 10.40642,-2.15329 16.06994,-2.15329c12.25808,0 21.21783,3.06043 26.98573,9.1767c5.6656,6.11627 8.55059,15.40751 8.55059,27.86684l0,36.70222l0.20667,0zm-41.81984,17.21948c3.39853,0 6.90143,-0.68035 10.60892,-2.03876c3.70748,-1.3607 7.00372,-3.85302 9.78434,-7.25019c1.64916,-2.15329 2.88499,-4.53108 3.5029,-7.25019c0.61791,-2.71911 1.02916,-6.00403 1.02916,-9.85476l0,-4.75786a85.87127,94.22954 0 0 0 -9.47538,-1.92422a77.44593,84.98412 0 0 0 -9.68205,-0.68264c-6.90143,0 -11.94912,1.47295 -15.34765,4.53108c-3.39853,3.06043 -5.04769,7.36473 -5.04769,13.02743c0,5.32368 1.23583,9.28895 3.81186,12.00805c2.47166,2.83135 6.07685,4.19205 10.8135,4.19205l0.00209,0zm82.71072,12.23255c-1.85374,0 -3.08957,-0.33903 -3.91415,-1.13162c-0.82249,-0.68035 -1.54479,-2.26783 -2.1627,-4.41884l-24.20511,-87.56349c-0.61791,-2.26783 -0.92687,-3.73849 -0.92687,-4.53108c0,-1.81197 0.82249,-2.83135 2.47166,-2.83135l10.09329,0c1.95812,0 3.29833,0.33903 4.01853,1.13162c0.82458,0.68035 1.44041,2.26783 2.06041,4.41884l17.30577,74.98963l16.06785,-74.98963c0.51354,-2.26783 1.13145,-3.73849 1.95603,-4.41884c0.82458,-0.68035 2.26499,-1.13162 4.12082,-1.13162l8.23955,0c1.95812,0 3.29624,0.33903 4.12082,1.13162c0.82458,0.68035 1.54479,2.26783 1.95603,4.41884l16.27452,75.89676l17.82139,-75.89676c0.61583,-2.26783 1.33603,-3.73849 2.05832,-4.41884c0.82458,-0.68035 2.1627,-1.13162 4.01853,-1.13162l9.57767,0c1.64916,0 2.57603,0.90484 2.57603,2.83135c0,0.56581 -0.10229,1.13162 -0.20667,1.81197a14.69842,16.12909 0 0 1 -0.7202,2.83135l-24.82303,87.56807c-0.62,2.26554 -1.34021,3.7362 -2.16479,4.41654c-0.82249,0.68035 -2.1627,1.13392 -3.91415,1.13392l-8.85746,0c-1.95812,0 -3.29833,-0.34132 -4.12082,-1.13392c-0.82249,-0.7926 -1.54479,-2.26554 -1.95603,-4.53108l-15.96556,-73.06311l-15.86327,72.95087c-0.51562,2.26554 -1.13354,3.73849 -1.95812,4.53108c-0.82249,0.7926 -2.26499,1.13162 -4.11873,1.13162l-8.85955,0l0,-0.00229zm132.36095,3.06043c-5.35665,0 -10.71329,-0.68035 -15.86327,-2.03876c-5.14998,-1.3607 -9.16642,-2.83364 -11.84474,-4.53337c-1.64916,-1.01938 -2.78061,-2.15329 -3.19395,-3.17038a7.31268,8.02446 0 0 1 -0.61791,-3.17267l0,-5.77724c0,-2.37779 0.82458,-3.5117 2.36937,-3.5117c0.61791,0 1.23583,0.11454 1.85374,0.33903c0.61791,0.22907 1.54479,0.68035 2.57603,1.13392a55.92749,61.37118 0 0 0 11.33121,3.96298c4.11873,0.90713 8.13726,1.3607 12.25599,1.3607c6.49019,0 11.53788,-1.24616 15.03869,-3.73849c3.5029,-2.49232 5.35665,-6.11627 5.35665,-10.76189c0,-3.17038 -0.92687,-5.77495 -2.78061,-7.92825c-1.85374,-2.15329 -5.35665,-4.07752 -10.40434,-5.88949l-14.93432,-5.09918c-7.51935,-2.60457 -13.08266,-6.4553 -16.48119,-11.55449c-3.39853,-4.98465 -5.14998,-10.53511 -5.14998,-16.4246c0,-4.75786 0.92687,-8.94992 2.78061,-12.57387c1.85374,-3.62395 4.3254,-6.79662 7.41706,-9.28895c3.08957,-2.60457 6.59039,-4.53108 10.71121,-5.88949c4.12082,-1.3607 8.44622,-1.92651 12.97828,-1.92651c2.26708,0 4.63644,0.11454 6.90143,0.45357c2.36937,0.33903 4.53207,0.7926 6.69476,1.24616c2.06041,0.56581 4.01853,1.13162 5.87227,1.80968c1.85374,0.68264 3.29624,1.3607 4.3254,2.04105c1.4425,0.90713 2.47374,1.81197 3.09166,2.83135c0.61791,0.90713 0.92687,2.15329 0.92687,3.73849l0,5.32597c0,2.38008 -0.82458,3.62624 -2.36937,3.62624c-0.82458,0 -2.1627,-0.45357 -3.91415,-1.3607c-5.87227,-2.9436 -12.46475,-4.41654 -19.77743,-4.41654c-5.87018,0 -10.50663,1.01938 -13.69849,3.17038c-3.19395,2.15329 -4.84102,5.43821 -4.84102,10.08383c0,3.17038 1.02916,5.8872 3.08957,8.04049s5.87018,4.30659 11.32912,6.23081l14.62745,5.09918c7.41706,2.60457 12.77162,6.23081 15.96556,10.87414c3.19395,4.64333 4.73873,9.967 4.73873,15.85878c0,4.87011 -0.92687,9.28895 -2.67832,13.13968c-1.85374,3.85073 -4.3254,7.25019 -7.51935,9.9693c-3.19395,2.83135 -7.00372,4.87011 -11.4335,6.34306c-4.63436,1.58519 -9.47747,2.38008 -14.72974,2.38008l0,-0.00229z" fill="#252F3E" id="svg_3"/>
 </g>

</svg>